<svg width="72" height="68" fill="none" xmlns="http://www.w3.org/2000/svg"><path d="M21.672 10.226l9.718-.648c2.051-.108 4.103.648 5.722 2.052l31.422 30.773c1.62 1.62 1.512 4.32-.216 6.047L52.013 64.755c-1.727 1.727-4.427 1.835-6.046.216L15.3 34.305c-1.728-1.727-2.7-4.211-2.376-6.695l.756-9.825c.108-2.052 1.08-3.888 2.484-5.291" stroke="#fff" stroke-width="2" stroke-miterlimit="10" stroke-linecap="round" stroke-linejoin="round"/><path d="M23.4 16.489c1.62-.324 3.347.108 4.535 1.296 1.943 1.943 1.943 4.967 0 6.91-1.944 1.944-4.967 1.944-6.911 0-.432-.432-.756-.972-.972-1.404" stroke="#fff" stroke-width="2" stroke-miterlimit="10" stroke-linecap="round" stroke-linejoin="round"/><path d="M8.822 19.404S2.344 17.03 3.747 10.01C4.18 7.42 5.691 5.26 7.96 4.287c2.051-.972 4.967-1.08 8.422 1.944 0 0 1.727 1.512 2.267 4.427 2.592 13.173 5.723 10.906 5.723 10.906m22.35 16.519L39.704 45.1l-8.314-8.314 7.018-7.018c2.268-2.268 6.047-2.376 8.422 0 2.052 2.267 2.16 6.046-.108 8.314zm.432 14.47l-7.45-7.45m.864 5.614l9.718-9.718" stroke="#fff" stroke-width="2" stroke-miterlimit="10" stroke-linecap="round" stroke-linejoin="round"/></svg>