<svg width="46" height="47" viewBox="0 0 46 47" fill="none" xmlns="http://www.w3.org/2000/svg">
<path d="M44.0827 1.25586H1.09766V8.43642H44.0827V1.25586Z" stroke="#CCDAEA" stroke-width="2" stroke-miterlimit="10" stroke-linecap="round" stroke-linejoin="round"/>
<path d="M3.6551 27.1255C3.6551 27.1255 0.605821 31.7486 3.6551 31.7486C6.70438 31.7486 22.6393 31.7486 22.6393 31.7486" stroke="#CCDAEA" stroke-width="2" stroke-miterlimit="10" stroke-linecap="round" stroke-linejoin="round"/>
<path d="M41.5253 27.1255C41.5253 27.1255 44.5746 31.7486 41.5253 31.7486C38.476 31.7486 22.5411 31.7486 22.5411 31.7486" stroke="#CCDAEA" stroke-width="2" stroke-miterlimit="10" stroke-linecap="round" stroke-linejoin="round"/>
<path d="M3.6551 42.3721C3.6551 42.3721 0.605821 45.1263 3.6551 45.1263C6.70438 45.1263 22.6393 45.1263 22.6393 45.1263" stroke="#CCDAEA" stroke-width="2" stroke-miterlimit="10" stroke-linecap="round" stroke-linejoin="round"/>
<path d="M41.5253 42.3721C41.5253 42.3721 44.5746 45.1263 41.5253 45.1263C38.476 45.1263 22.5411 45.1263 22.5411 45.1263" stroke="#CCDAEA" stroke-width="2" stroke-miterlimit="10" stroke-linecap="round" stroke-linejoin="round"/>
<path d="M22.6393 27.1258C22.6393 27.1258 6.70438 27.1258 3.6551 27.1258C0.605821 27.1258 3.6551 22.5027 3.6551 22.5027V8.83008H41.6236L41.5252 22.4043C41.5252 22.4043 44.5745 27.0274 41.5252 27.0274C38.5743 27.1258 22.6393 27.1258 22.6393 27.1258Z" stroke="#CCDAEA" stroke-width="2" stroke-miterlimit="10" stroke-linecap="round" stroke-linejoin="round"/>
<path d="M3.65512 42.3718V31.7485H41.6236V42.3718" stroke="#CCDAEA" stroke-width="2" stroke-miterlimit="10" stroke-linecap="round" stroke-linejoin="round"/>
<path d="M3.65512 22.4043H41.5252" stroke="#CCDAEA" stroke-width="2" stroke-miterlimit="10" stroke-linecap="round" stroke-linejoin="round"/>
<path d="M3.65512 15.519H41.6236" stroke="#CCDAEA" stroke-width="2" stroke-miterlimit="10" stroke-linecap="round" stroke-linejoin="round"/>
</svg>
