<svg width="28" height="51" viewBox="0 0 28 51" fill="none" xmlns="http://www.w3.org/2000/svg">
<path d="M26.0896 5.0041V45.8041C26.0896 47.9041 24.3896 49.6041 22.2896 49.6041H5.18965C3.08965 49.6041 1.38965 47.9041 1.38965 45.8041V5.0041C1.38965 2.9041 3.08965 1.2041 5.18965 1.2041H22.2896C24.3896 1.2041 26.0896 2.9041 26.0896 5.0041Z" stroke="#CCDAEA" stroke-width="2" stroke-miterlimit="10" stroke-linecap="round" stroke-linejoin="round"/>
<path d="M15.4897 27.6044H12.0897C11.4897 27.6044 10.9897 27.1044 10.9897 26.5044V23.1044C10.9897 22.5044 11.4897 22.0044 12.0897 22.0044H15.4897C16.0897 22.0044 16.5897 22.5044 16.5897 23.1044V26.5044C16.4897 27.2044 16.0897 27.6044 15.4897 27.6044Z" stroke="#CCDAEA" stroke-width="2" stroke-miterlimit="10" stroke-linecap="round" stroke-linejoin="round"/>
<path d="M10.9897 17.7043H16.4897L13.7897 13.4043L10.9897 17.7043Z" stroke="#CCDAEA" stroke-width="2" stroke-miterlimit="10" stroke-linecap="round" stroke-linejoin="round"/>
<path d="M16.4897 32.1045H10.9897L13.7897 36.3045L16.4897 32.1045Z" stroke="#CCDAEA" stroke-width="2" stroke-miterlimit="10" stroke-linecap="round" stroke-linejoin="round"/>
<path d="M16.3896 1.2041C15.8896 2.1041 14.8896 2.7041 13.7896 2.7041C12.6896 2.7041 11.6896 2.1041 11.1896 1.2041H16.3896Z" stroke="#CCDAEA" stroke-width="2" stroke-miterlimit="10" stroke-linecap="round" stroke-linejoin="round"/>
</svg>
