<svg width="87" height="40" viewBox="0 0 87 40" fill="none" xmlns="http://www.w3.org/2000/svg">
<rect x="0.243286" y="0.777344" width="86.305" height="38.6224" rx="19.3112" fill="#12253B"/>
<rect x="0.243286" y="0.777344" width="49.2579" height="38.6224" rx="19.3112" fill="#FFE27D"/>
<path d="M72.847 26.3305C72.8041 26.2667 72.7352 26.2251 72.6588 26.2169H72.624C68.09 26.2217 64.4107 22.5501 64.4059 18.0162C64.4031 15.3881 65.6587 12.9175 67.7835 11.3706C67.9031 11.2906 67.9351 11.1288 67.8551 11.0092C67.8064 10.9364 67.7243 10.8929 67.6367 10.8936L67.6385 10.8954C62.8148 10.8949 58.9039 14.8049 58.9034 19.6286C58.9029 24.4524 62.8129 28.3632 67.6367 28.3637C69.4835 28.3639 71.2829 27.7787 72.7762 26.6921C72.8957 26.6118 72.9274 26.4499 72.847 26.3305Z" fill="#FFE380"/>
<path d="M70.0436 21.1395C70.0124 21.113 69.9755 21.0943 69.9358 21.0847L69.934 21.0811L69.2294 20.9122L68.8514 20.2994C68.7769 20.1763 68.6167 20.1368 68.4936 20.2113C68.4575 20.2331 68.4273 20.2633 68.4055 20.2994L68.0238 20.9122L67.3302 21.0811C67.1889 21.1081 67.0963 21.2446 67.1234 21.386C67.1319 21.4306 67.152 21.4723 67.1816 21.5068L67.6513 22.0572L67.5963 22.7802C67.5835 22.9235 67.6893 23.0501 67.8326 23.0629C67.8774 23.0669 67.9224 23.0593 67.9633 23.0407L68.6349 22.7655L69.2918 23.0352C69.4229 23.0943 69.5772 23.0359 69.6363 22.9047C69.6539 22.8656 69.6616 22.8229 69.6587 22.7802L69.6037 22.0572L70.0734 21.5068C70.1666 21.3971 70.1532 21.2327 70.0436 21.1395Z" fill="#FFE380"/>
<path d="M71.1758 14.4901C71.1447 14.4637 71.1078 14.445 71.0681 14.4354L71.0717 14.4445L69.868 14.151L69.2185 13.0996C69.144 12.9764 68.9838 12.937 68.8607 13.0115C68.8246 13.0333 68.7944 13.0635 68.7726 13.0996L68.1212 14.1546L66.9285 14.4464C66.788 14.4773 66.6991 14.6163 66.73 14.7568C66.738 14.7933 66.7538 14.8276 66.7762 14.8574L67.5781 15.8024L67.4845 17.0391C67.4717 17.1824 67.5775 17.309 67.7208 17.3218C67.7655 17.3258 67.8105 17.3182 67.8515 17.2997L68.9983 16.8299L70.1304 17.2941C70.2616 17.3532 70.4159 17.2948 70.475 17.1636C70.4926 17.1246 70.5003 17.0818 70.4974 17.0391L70.4038 15.8024L71.2057 14.8574C71.2988 14.7477 71.2855 14.5833 71.1758 14.4901Z" fill="#FFE380"/>
<path d="M73.5043 18.7083C73.4731 18.6818 73.4362 18.6631 73.3965 18.6535L73.3892 18.6498L72.8387 18.5177L72.547 18.0443C72.4725 17.9212 72.3123 17.8817 72.1891 17.9562C72.1531 17.978 72.1229 18.0083 72.1011 18.0443L71.813 18.5269L71.2809 18.6572C71.1398 18.6856 71.0484 18.8229 71.0768 18.964C71.0852 19.0056 71.1036 19.0445 71.1304 19.0774L71.4974 19.5049L71.4552 20.0554C71.4424 20.1987 71.5482 20.3253 71.6915 20.3381C71.7362 20.3421 71.7812 20.3345 71.8222 20.3159L72.3396 20.1031L72.8424 20.3086C72.9736 20.3677 73.1278 20.3092 73.187 20.178C73.2045 20.139 73.2122 20.0962 73.2094 20.0535L73.1672 19.5031L73.5341 19.0755C73.6273 18.9659 73.614 18.8014 73.5043 18.7083Z" fill="#FFE380"/>
<path d="M25.1757 12.7136C21.6281 12.7136 18.7415 15.6002 18.7415 19.1478C18.7415 22.6955 21.6281 25.5821 25.1757 25.5821C28.7233 25.5821 31.61 22.6955 31.61 19.1478C31.61 15.6002 28.7233 12.7136 25.1757 12.7136Z" fill="#12253B"/>
<path d="M31.8545 23.0086C31.1853 24.1796 30.1945 25.1576 29.0234 25.8397L32.8969 26.882L31.8545 23.0086Z" fill="#12253B"/>
<path d="M25.1757 8.16699L23.194 11.6972C23.8245 11.5171 24.4936 11.427 25.1757 11.427C25.8577 11.427 26.5269 11.5171 27.1574 11.6972L25.1757 8.16699Z" fill="#12253B"/>
<path d="M17.4546 11.427L18.4969 15.2876C19.1661 14.1165 20.1313 13.1514 21.3023 12.4694L17.4546 11.427Z" fill="#12253B"/>
<path d="M17.7249 17.1534L14.2075 19.148L17.7249 21.1426C17.5448 20.5121 17.4546 19.8429 17.4546 19.148C17.4546 18.4531 17.5447 17.7839 17.7249 17.1534Z" fill="#12253B"/>
<path d="M18.4969 23.0086L17.4546 26.882L21.328 25.8397C20.157 25.1576 19.1661 24.1796 18.4969 23.0086Z" fill="#12253B"/>
<path d="M25.1757 26.8692C24.4808 26.8692 23.8116 26.7792 23.1682 26.599L25.1757 30.1293L27.1832 26.599C26.5398 26.7791 25.8706 26.8692 25.1757 26.8692Z" fill="#12253B"/>
<path d="M29.0432 12.4759C30.2074 13.1534 31.1775 14.1243 31.8534 15.2896L32.9012 11.4289L29.0432 12.4759Z" fill="#12253B"/>
<path d="M36.1443 19.1541L32.629 17.1642C32.798 17.7984 32.8968 18.461 32.8968 19.1478C32.8968 19.8399 32.7967 20.5077 32.6251 21.1464L36.1443 19.1541Z" fill="#12253B"/>
</svg>
