<svg width="72" height="68" viewBox="0 0 72 68" fill="none" xmlns="http://www.w3.org/2000/svg">
<path d="M21.6717 10.2261L31.3897 9.57827C33.4413 9.47029 35.4928 10.2261 37.1125 11.6298L68.5339 42.4034C70.1536 44.0231 70.0456 46.7225 68.318 48.4502L52.0134 64.7548C50.2858 66.4824 47.5863 66.5904 45.9666 64.9707L15.301 34.3051C13.5734 32.5775 12.6016 30.094 12.9255 27.6105L13.6814 17.7846C13.7893 15.733 14.7611 13.8974 16.1648 12.4937" stroke="white" stroke-width="2" stroke-miterlimit="10" stroke-linecap="round" stroke-linejoin="round"/>
<path d="M23.3995 16.4889C25.0191 16.165 26.7468 16.5969 27.9345 17.7846C29.8781 19.7282 29.8781 22.7516 27.9345 24.6952C25.9909 26.6388 22.9676 26.6388 21.024 24.6952C20.5921 24.2633 20.2681 23.7234 20.0522 23.2915" stroke="white" stroke-width="2" stroke-miterlimit="10" stroke-linecap="round" stroke-linejoin="round"/>
<path d="M8.82241 19.4041C8.82241 19.4041 2.34375 17.0286 3.74746 10.0101C4.17937 7.41864 5.69106 5.25909 7.95859 4.28729C10.0102 3.31549 12.9256 3.20752 16.3808 6.23089C16.3808 6.23089 18.1085 7.74257 18.6484 10.658C21.2398 23.8312 24.3712 21.5637 24.3712 21.5637" stroke="white" stroke-width="2" stroke-miterlimit="10" stroke-linecap="round" stroke-linejoin="round"/>
<path d="M46.7225 38.0828L39.704 45.1014L31.3897 36.7871L38.4082 29.7686C40.6758 27.501 44.455 27.3931 46.8305 29.7686C48.8821 32.0361 48.99 35.8153 46.7225 38.0828Z" stroke="white" stroke-width="2" stroke-miterlimit="10" stroke-linecap="round" stroke-linejoin="round"/>
<path d="M47.1545 52.5532L39.704 45.1028" stroke="white" stroke-width="2" stroke-miterlimit="10" stroke-linecap="round" stroke-linejoin="round"/>
<path d="M40.5677 50.717L50.2857 40.9991" stroke="white" stroke-width="2" stroke-miterlimit="10" stroke-linecap="round" stroke-linejoin="round"/>
</svg>
