<svg width="46" height="74" fill="none" xmlns="http://www.w3.org/2000/svg"><path d="M39 40.968c.5-.5 1.188-.382 1.817-.701 2.936-1.49 1.678-2.66 1.678-2.66-5.663 0-5.243-6.492-5.243-6.492V15.472c0-4.043-1.573-7.661-4.195-10.215A14.153 14.153 0 0022.886 1c-7.97 0-14.26 6.81-14.26 14.898V30.69c0 4.788-3.986 5.214-4.615 7.023-.524 1.49 2.99 1.755 3.49 2.755" stroke="#59738C" stroke-width="2" stroke-miterlimit="10" stroke-linecap="round" stroke-linejoin="round"/><path d="M23.096 36.755c-2.412 0-3.67-1.702-3.67-1.702s-2.412-2.448-4.928-4.47c-2.517-2.022-2.202-6.81-2.202-6.81-3.985-1.384-4.3-7.45-2.098-8.513 2.203-1.065 2.937 2.66 2.937 2.66s7.55-1.384 9.122-6.066c0 0 .105-1.596 2.727-.851 2.621.745 8.389 2.447 8.179 6.917 0 0 .734-3.618 2.936-2.66 2.202.957 1.887 7.13-2.097 8.513 0 0 .314 4.788-2.202 6.81-2.517 2.022-4.929 4.47-4.929 4.47s-1.468 1.702-3.775 1.702zm-5.662 1.915v-5.32m2.831 13.195l-2.831-7.874s-2.622.638-3.88 1.915c-.315.32-.524.639-.734.958-.63 1.809-1.049 4.044-1.049 4.044s.688 1.064 3.729.957m13.049-7.875v-5.32m2.097 13.195c3.041.107 3.565-1.064 3.565-1.064s-.42-2.128-1.048-4.044c-.105-.319-.315-.638-.734-.957-1.363-1.277-3.88-1.916-3.88-1.916l-2.831 7.875" stroke="#59738C" stroke-width="2" stroke-miterlimit="10" stroke-linecap="round" stroke-linejoin="round"/><path d="M4.5 66.338H1V49.95c0-3.83 2.307-7.13 5.558-8.62 1.153-.531 2.411-.85 3.774-.85H13.5" stroke="#59738C" stroke-width="2" stroke-miterlimit="10" stroke-linecap="round" stroke-linejoin="round"/><path d="M41.342 46.545H4.746v22.88h36.596v-22.88z" stroke="#59738C" stroke-width="2" stroke-miterlimit="10" stroke-linecap="round" stroke-linejoin="round"/><path d="M38.825 72.936H7.158c-1.888 0-3.46-1.596-3.46-3.512h38.797c-.105 1.916-1.677 3.512-3.67 3.512zM23.097 59.315c.752 0 1.363-.62 1.363-1.383 0-.765-.61-1.384-1.363-1.384s-1.364.62-1.364 1.383c0 .765.61 1.384 1.364 1.384zM41.5 66.338h2.881V49.95c0-5.214-4.194-9.47-9.332-9.47l-2.549-.012" stroke="#59738C" stroke-width="2" stroke-miterlimit="10" stroke-linecap="round" stroke-linejoin="round"/></svg>