<svg width="55" height="73" fill="none" xmlns="http://www.w3.org/2000/svg"><path d="M53.701 1H1v70.701h52.701V1z" stroke="#59738C" stroke-width="2" stroke-linecap="round" stroke-linejoin="round"/><path d="M45.014 20.306H9.684v6.199h35.33v-6.2zm-3.617 32.089H13.406a.667.667 0 01-.673-.657V31.706c0 .183.05 2.27 2.17 6.618 0 0 1.582 2.542-.496 2.542H42.07" stroke="#59738C" stroke-width="2" stroke-linecap="round" stroke-linejoin="round"/><path d="M14.407 40.866c2.092 0 .496-2.542.496-2.542-2.12-4.344-2.158-6.435-2.158-6.618" stroke="#59738C" stroke-width="2" stroke-linecap="round" stroke-linejoin="round"/><path d="M15.136 46.63c1.115 0 .063-1.889.063-1.889-2.018-2.605-2.451-3.884-2.451-3.884h29.337m-.015 5.773H12.745s.433 1.272 2.451 3.883c0 0 1.052 1.891-.063 1.891M43.48 40.867h-2.062m.652 0c.373.627.92 2.004 1.793 3.883 0 0 1.053 1.889-.062 1.889m-3.055 5.756h3.06c1.116 0 .063-1.89.063-1.89-.675-1.56-1.425-3.245-1.793-3.885m-.658.01h2.389M12.733 26.505v5.201m28.882-5.195v5.186s-.05 2.077 2.17 6.633c0 0 1.582 2.542-.496 2.542m-5.273-14.367v18.218" stroke="#59738C" stroke-width="2" stroke-linecap="round" stroke-linejoin="round"/><path d="M39.054 45.757a1.034 1.034 0 00-2.069 0v1.177a1.034 1.034 0 002.069 0v-1.177z" fill="#fff" stroke="#59738C" stroke-width="2" stroke-linecap="round" stroke-linejoin="round"/><path d="M53.701 10.838l-4.923-4.92L43.858 1H53.7v9.838z" stroke="#59738C" stroke-width="2" stroke-linecap="round" stroke-linejoin="round"/></svg>