<svg width="44" height="72" fill="none" xmlns="http://www.w3.org/2000/svg"><path d="M42.826 12h-41v59h41V12zm-16-6.1l8-1.9v8m-33 0l24.6-6 .4-.1V1l-25 11z" stroke="#59738C" stroke-width="2" stroke-miterlimit="10" stroke-linecap="round" stroke-linejoin="round"/><path d="M21.826 18h-16v23h16V18zm17 28h-13v19h13V46zm-12-25h12m-12 4.5h6m-6 4.5h9m-30 17h9m-9 4.5h12m-12 4.5h6" stroke="#59738C" stroke-width="2" stroke-miterlimit="10" stroke-linecap="round" stroke-linejoin="round"/><path d="M12.226 18v12h9.6m-16 6.1s4-1.1 9-.1v5" stroke="#59738C" stroke-width="2" stroke-miterlimit="10" stroke-linecap="round" stroke-linejoin="round"/></svg>