<svg width="46" height="47" fill="none" xmlns="http://www.w3.org/2000/svg"><path d="M44.083 1.256H1.098v7.18h42.985v-7.18zM3.655 27.125s-3.05 4.624 0 4.624H22.64" stroke="#CCDAEA" stroke-width="2" stroke-miterlimit="10" stroke-linecap="round" stroke-linejoin="round"/><path d="M41.525 27.125s3.05 4.624 0 4.624H22.541M3.655 42.372s-3.05 2.754 0 2.754H22.64" stroke="#CCDAEA" stroke-width="2" stroke-miterlimit="10" stroke-linecap="round" stroke-linejoin="round"/><path d="M41.525 42.372s3.05 2.754 0 2.754H22.541m.099-18H3.654c-3.05 0 0-4.623 0-4.623V8.83h37.969l-.099 13.574s3.05 4.623 0 4.623c-2.95.099-18.886.099-18.886.099zM3.655 42.372V31.749h37.969v10.623M3.655 22.404h37.87m-37.87-6.885h37.969" stroke="#CCDAEA" stroke-width="2" stroke-miterlimit="10" stroke-linecap="round" stroke-linejoin="round"/></svg>