<svg width="28" height="51" fill="none" xmlns="http://www.w3.org/2000/svg"><path d="M26.09 5.004v40.8c0 2.1-1.7 3.8-3.8 3.8H5.19c-2.1 0-3.8-1.7-3.8-3.8v-40.8c0-2.1 1.7-3.8 3.8-3.8h17.1c2.1 0 3.8 1.7 3.8 3.8z" stroke="#CCDAEA" stroke-width="2" stroke-miterlimit="10" stroke-linecap="round" stroke-linejoin="round"/><path d="M15.49 27.604h-3.4c-.6 0-1.1-.5-1.1-1.1v-3.4c0-.6.5-1.1 1.1-1.1h3.4c.6 0 1.1.5 1.1 1.1v3.4c-.1.7-.5 1.1-1.1 1.1zm-4.5-9.9h5.5l-2.7-4.3-2.8 4.3zm5.5 14.401h-5.5l2.8 4.2 2.7-4.2zm-.1-30.901c-.5.9-1.5 1.5-2.6 1.5s-2.1-.6-2.6-1.5h5.2z" stroke="#CCDAEA" stroke-width="2" stroke-miterlimit="10" stroke-linecap="round" stroke-linejoin="round"/></svg>