<svg width="161" height="26" viewBox="0 0 161 26" fill="none" xmlns="http://www.w3.org/2000/svg">
<g clip-path="url(#clip0_1_47)">
<path d="M36.9091 19.6409C36.9091 16.1083 39.5688 13.2822 43.0683 13.2822C43.2083 13.2822 43.3483 13.2822 43.3483 13.2822C46.8478 13.1409 49.7875 15.8257 49.9275 19.3583C50.0674 22.8909 47.4078 25.8583 43.9082 25.9996C43.7682 25.9996 43.4883 25.9996 43.3483 25.9996C39.8487 26.1409 37.0491 23.4561 36.9091 20.0648C36.9091 19.9235 36.9091 19.7822 36.9091 19.6409ZM47.2678 19.6409C47.2678 17.38 45.588 15.6844 43.3483 15.6844C41.1086 15.6844 39.4288 17.38 39.4288 19.6409C39.4288 21.9018 41.1086 23.5974 43.3483 23.5974C45.448 23.7387 47.2678 22.0431 47.2678 19.9235C47.4078 19.7822 47.4078 19.7822 47.2678 19.6409Z" fill="#2B8CFC"/>
<path d="M79.1838 25.2931L73.5845 17.2387C72.8846 17.2387 72.3247 17.3801 71.6248 17.3801H64.9056V25.2931H62.2459V0.282227H71.4848C77.784 0.282227 81.5635 3.53223 81.5635 8.90179C81.7035 12.5757 79.3238 15.8257 75.9642 16.8148L81.9835 25.4344H79.1838V25.2931ZM79.0438 8.76049C79.0438 4.80397 76.3842 2.5431 71.4848 2.5431H64.9056V15.1192H71.4848C76.3842 14.9779 79.0438 12.717 79.0438 8.76049Z" fill="#12253B"/>
<path d="M99.3412 2.5431H90.6623V0.282227H110.68V2.5431H102.001V25.2931H99.3412V2.5431Z" fill="#12253B"/>
<path d="M121.039 0.282227H123.698V25.2931H121.039V0.282227Z" fill="#12253B"/>
<path d="M42.0885 0.282227H44.6082V13.9887H42.0885V0.282227Z" fill="#2B8CFC"/>
<path d="M160.094 0.282227V25.2931H157.994L141.896 4.94527V25.2931H139.236V0.282227H141.336L157.294 20.6301V0.282227H160.094Z" fill="#12253B"/>
<path d="M22.6309 17.0973C20.9511 20.9125 17.1716 23.1733 13.1121 23.032C7.5128 23.1733 2.89338 18.7929 2.75339 13.1407C2.75339 12.9994 2.75339 12.7168 2.75339 12.5755C2.61341 6.92334 7.09285 2.2603 12.6922 2.2603C12.8321 2.2603 13.1121 2.2603 13.2521 2.2603C17.3116 2.119 21.0911 4.52117 22.7709 8.19508L25.1506 7.06465C22.7709 2.68422 18.1515 -0.141872 13.1121 -0.000567727C6.25296 -0.283176 0.373693 5.08639 0.0937276 12.0103C0.0937276 12.2929 0.0937276 12.4342 0.0937276 12.7168C-0.0462549 19.6407 5.41306 25.4342 12.4122 25.5755C12.6922 25.5755 12.9721 25.5755 13.1121 25.5755C18.1515 25.7168 22.7709 22.8907 25.0106 18.369L22.6309 17.0973Z" fill="#12253B"/>
</g>
<defs>
<clipPath id="clip0_1_47">
<rect width="160" height="26" fill="white" transform="translate(0.09375)"/>
</clipPath>
</defs>
</svg>
