<svg width="153" height="26" viewBox="0 0 153 26" fill="none" xmlns="http://www.w3.org/2000/svg">
<path d="M34.9989 19.257C34.9989 15.8989 37.5272 13.2125 40.8538 13.2125C40.9869 13.2125 41.1199 13.2125 41.1199 13.2125C44.4466 13.0781 47.2409 15.6303 47.374 18.9883C47.5071 22.3464 44.9788 25.1671 41.6522 25.3015C41.5191 25.3015 41.253 25.3015 41.1199 25.3015C37.7933 25.4358 35.132 22.8837 34.9989 19.6599C34.9989 19.5256 34.9989 19.3913 34.9989 19.257ZM44.8458 19.257C44.8458 17.1078 43.249 15.4959 41.1199 15.4959C38.9909 15.4959 37.3941 17.1078 37.3941 19.257C37.3941 21.4061 38.9909 23.018 41.1199 23.018C43.1159 23.1523 44.8458 21.5404 44.8458 19.5256C44.9788 19.3913 44.9788 19.3913 44.8458 19.257Z" fill="#2B8CFC"/>
<path d="M75.1846 24.629L69.8619 16.9727C69.1966 16.9727 68.6643 17.107 67.999 17.107H61.6119V24.629H59.0836V0.854004H67.8659C73.8539 0.854004 77.4467 3.94342 77.4467 9.04766C77.5797 12.54 75.3176 15.6295 72.1241 16.5697L77.8459 24.7634H75.1846V24.629ZM75.0515 8.91334C75.0515 5.15232 72.5232 3.00316 67.8659 3.00316H61.6119V14.9578H67.8659C72.5232 14.8235 75.0515 12.6744 75.0515 8.91334Z" fill="#1F3652"/>
<path d="M94.3458 3.00316H86.0957V0.854004H105.124V3.00316H96.874V24.629H94.3458V3.00316Z" fill="#1F3652"/>
<path d="M114.971 0.854004H117.5V24.629H114.971V0.854004Z" fill="#1F3652"/>
<path d="M39.922 0.854004H42.3172V13.8833H39.922V0.854004Z" fill="#2B8CFC"/>
<path d="M152.097 0.854004V24.629H150.101L134.798 5.28664V24.629H132.27V0.854004H134.266L149.435 20.1964V0.854004H152.097Z" fill="#1F3652"/>
<path d="M21.4261 16.8373C19.8293 20.464 16.2365 22.6132 12.3776 22.4789C7.05499 22.6132 2.66382 18.4492 2.53075 13.0763C2.53075 12.942 2.53075 12.6734 2.53075 12.539C2.39769 7.16614 6.65579 2.73351 11.9784 2.73351C12.1115 2.73351 12.3776 2.73351 12.5107 2.73351C16.3696 2.59919 19.9624 4.88267 21.5591 8.37505L23.8213 7.30047C21.5591 3.13648 17.168 0.450032 12.3776 0.584355C5.85739 0.31571 0.268634 5.41995 0.00250257 12.0017C0.00250257 12.2704 0.00250257 12.4047 0.00250257 12.6734C-0.130563 19.2551 5.059 24.7624 11.7123 24.8967C11.9784 24.8967 12.2445 24.8967 12.3776 24.8967C17.168 25.031 21.5591 22.3446 23.6882 18.0462L21.4261 16.8373Z" fill="#1F3652"/>
</svg>
