<svg width="87" height="40" fill="none" xmlns="http://www.w3.org/2000/svg"><rect x=".243" y=".777" width="86.305" height="38.622" rx="19.311" fill="#12253B"/><rect x=".243" y=".777" width="49.258" height="38.622" rx="19.311" fill="#FFE27D"/><path d="M72.847 26.33a.26.26 0 00-.188-.113h-.035a8.21 8.21 0 01-4.84-14.846.26.26 0 00-.147-.477l.001.001a8.734 8.734 0 105.138 15.797.26.26 0 00.071-.361z" fill="#FFE380"/><path d="M70.044 21.14a.261.261 0 00-.108-.055l-.002-.004-.705-.169-.378-.613a.26.26 0 00-.445 0l-.382.613-.694.17a.26.26 0 00-.148.425l.47.55-.056.723a.26.26 0 00.367.26l.672-.274.657.27a.26.26 0 00.367-.256l-.055-.723.47-.55a.26.26 0 00-.03-.367zm1.132-6.65a.261.261 0 00-.108-.055l.004.01-1.204-.294-.65-1.051a.26.26 0 00-.445 0l-.652 1.055-1.192.291a.26.26 0 00-.153.411l.802.945-.094 1.237a.26.26 0 00.368.26l1.146-.47 1.132.465a.26.26 0 00.367-.255l-.093-1.237.802-.945a.26.26 0 00-.03-.367zm2.328 4.218a.261.261 0 00-.108-.054l-.007-.004-.55-.132-.292-.474a.26.26 0 00-.446 0l-.288.483-.532.13a.26.26 0 00-.15.42l.366.428-.042.55a.26.26 0 00.367.26l.518-.212.502.206a.26.26 0 00.367-.256l-.042-.55.367-.427a.26.26 0 00-.03-.368z" fill="#FFE380"/><path d="M25.176 12.714a6.442 6.442 0 00-6.434 6.434 6.442 6.442 0 006.434 6.434 6.442 6.442 0 006.434-6.434 6.442 6.442 0 00-6.434-6.434zm6.679 10.295a7.758 7.758 0 01-2.832 2.83l3.874 1.043-1.042-3.873zM25.176 8.167l-1.982 3.53c.63-.18 1.3-.27 1.982-.27.682 0 1.35.09 1.981.27l-1.981-3.53zm-7.721 3.26l1.042 3.86a7.654 7.654 0 012.805-2.818l-3.847-1.042zm.27 5.726l-3.518 1.995 3.518 1.995a7.25 7.25 0 01-.27-1.995c0-.695.09-1.364.27-1.995zm.772 5.856l-1.042 3.873 3.873-1.042a7.759 7.759 0 01-2.831-2.831zm6.679 3.861c-.695 0-1.364-.09-2.008-.271l2.008 3.53 2.007-3.53a7.41 7.41 0 01-2.007.27zm3.867-14.394a7.767 7.767 0 012.81 2.814l1.048-3.861-3.858 1.047zm7.101 6.678l-3.515-1.99c.169.634.268 1.297.268 1.984 0 .692-.1 1.36-.272 1.998l3.52-1.992z" fill="#12253B"/></svg>