<svg width="104" height="32" viewBox="0 0 104 32" fill="none" xmlns="http://www.w3.org/2000/svg">
<path d="M11.039 6.66583H0.976196V25.3179H11.039C13.6075 25.3179 15.9267 24.2796 17.6134 22.5874C19.3001 20.8953 20.3352 18.5686 20.3352 15.9919C20.3352 10.8385 16.1759 6.66583 11.039 6.66583ZM13.4541 18.7032C12.7641 19.3954 11.8057 19.8377 10.7515 19.8377H6.63055V12.3384H10.9432C12.9558 12.3384 14.585 13.9728 14.585 15.9919C14.585 17.0495 14.1633 18.0109 13.4541 18.7032Z" fill="#FE8A90"/>
<path d="M23.0187 2.81974V8.20385H42.5694V0.127686L23.0187 2.81974Z" fill="#FE8A90"/>
<path d="M42.5694 28.8762V23.4921H23.0187V31.5682L42.5694 28.8762Z" fill="#FE8A90"/>
<path d="M42.5694 13.1068H23.0187V18.4909H42.5694V13.1068Z" fill="#FE8A90"/>
<path d="M74.3097 6.66583C69.1729 6.66583 65.0135 10.8385 65.0135 15.9919C65.0135 21.1452 69.1729 25.3179 74.3097 25.3179C79.4465 25.3179 83.6059 21.1452 83.6059 15.9919C83.6059 10.8385 79.4274 6.66583 74.3097 6.66583ZM74.3097 19.8953C72.163 19.8953 70.4187 18.1455 70.4187 15.9919C70.4187 13.8382 72.163 12.0884 74.3097 12.0884C76.4564 12.0884 78.2007 13.8382 78.2007 15.9919C78.2007 18.1455 76.4564 19.8953 74.3097 19.8953Z" fill="#FE8A90"/>
<path d="M58.2482 17.1648L63.2892 19.1262C61.9475 22.8758 58.2674 25.5294 53.9931 25.2795C49.2396 25.0103 45.4253 21.1068 45.2528 16.338C45.0419 11.05 49.2779 6.66583 54.5298 6.66583C58.5741 6.66583 62.0242 9.26174 63.2892 12.8768L58.2482 14.8381C57.769 13.2421 56.274 12.0692 54.5298 12.0692C52.3064 12.0692 50.5238 13.9344 50.6388 16.2034C50.7538 18.2224 52.4405 19.8569 54.4531 19.8954C56.2357 19.9338 57.7499 18.7801 58.2482 17.1648Z" fill="#FE8A90"/>
<path d="M94.7039 6.66583C89.567 6.66583 85.4077 10.8385 85.4077 15.9919C85.4077 21.1452 89.567 25.3179 94.7039 25.3179C99.8407 25.3179 104 21.1452 104 15.9919C104 10.8385 99.8407 6.66583 94.7039 6.66583ZM94.7039 19.8953C92.5571 19.8953 90.8129 18.1455 90.8129 15.9919C90.8129 13.8382 92.5571 12.0884 94.7039 12.0884C96.8506 12.0884 98.5948 13.8382 98.5948 15.9919C98.5948 18.1455 96.8506 19.8953 94.7039 19.8953Z" fill="#FE8A90"/>
</svg>
