<svg width="43" height="13" viewBox="0 0 43 13" fill="none" xmlns="http://www.w3.org/2000/svg">
<path d="M8.83072 12.0035H8.25379H6.10406L5.41426 8.4355L4.72446 12.0035H1.99833L0.233398 2.88105H2.38313L3.36139 7.93863L4.33966 2.88132H6.48886L7.46712 7.93889L8.44565 2.88158H10.5954L8.83072 12.0035ZM21.1495 12.0035H20.5723H18.7764L17.9092 7.52047L17.0432 12.0035H14.8938L16.6584 2.88078H18.8079L19.7862 7.93836L20.7647 2.88078H22.9142L21.1492 12.0035H21.1495ZM25.2771 12.0035H23.1274L25.2961 0.795898H27.4434L27.3297 1.38563L27.3145 1.46329L27.1584 2.27691L27.0415 2.88158L25.2771 12.0035ZM12.9367 12.0035H10.7875L12.5522 2.88078H14.7016L12.9367 12.0035ZM40.5222 12.0035H34.7441L35.1468 9.91784H40.923L40.5227 12.0035H40.5222ZM33.0098 12.0035H27.2336L27.6363 9.91784H33.4122L33.0096 12.0035H33.0098ZM41.2058 8.46672H35.4286L35.8312 6.38077H41.6072L41.2069 8.46645L41.2058 8.46672ZM33.6959 8.46672H27.9181L28.3208 6.38077H34.0986L33.6962 8.46538L33.6959 8.46672ZM41.8825 4.96807H36.1053L36.508 2.88212H42.2852L41.8825 4.9678V4.96807ZM34.3721 4.96807H28.5962L28.9996 2.88078H34.7758L34.3732 4.96647L34.3721 4.96807Z" fill="#314961"/>
</svg>
