<svg width="151" height="40" viewBox="0 0 151 40" fill="none" xmlns="http://www.w3.org/2000/svg">
<path d="M31.3565 39.9999H29.2976H21.6261L19.1644 27.267L16.7028 39.9999H6.97428L0.675903 7.44526H8.34747L11.8385 25.4938L15.3296 7.44622H22.9992L26.4903 25.4948L29.9823 7.44717H37.6539L31.3565 39.9999ZM75.3175 39.9999H73.2577H66.8489L63.754 24.0016L60.6638 39.9999H52.9932L59.2906 7.44431H66.9612L70.4523 25.4929L73.9443 7.44431H81.6149L75.3165 39.9999H75.3175ZM90.0474 39.9999H82.3758L90.115 0.00415039H97.778L97.3723 2.10869L97.318 2.3858L96.7609 5.2893L96.3438 7.44717L90.0474 39.9999ZM46.0092 39.9999H38.3395L44.6369 7.44431H52.3076L46.0092 39.9999ZM144.451 39.9999H123.831L125.268 32.5569H145.881L144.453 39.9999H144.451ZM117.643 39.9999H97.0295L98.4665 32.5569H119.079L117.642 39.9999H117.643ZM146.891 27.3784H126.274L127.711 19.9344H148.323L146.895 27.3774L146.891 27.3784ZM120.091 27.3784H99.4721L100.909 19.9344H121.528L120.092 27.3736L120.091 27.3784ZM149.306 14.893H128.689L130.126 7.44907H150.743L149.306 14.8921V14.893ZM122.504 14.893H101.892L103.332 7.44431H123.945L122.508 14.8873L122.504 14.893Z" fill="#FF7A44"/>
</svg>
