<svg width="104" height="32" fill="none" xmlns="http://www.w3.org/2000/svg"><path d="M11.039 6.666H.976v18.652H11.04a9.24 9.24 0 006.574-2.73 9.3 9.3 0 002.722-6.596c0-5.154-4.16-9.326-9.296-9.326zm2.415 12.037a3.82 3.82 0 01-2.703 1.135h-4.12v-7.5h4.312a3.646 3.646 0 013.642 3.654 3.766 3.766 0 01-1.13 2.711zM23.019 2.82v5.384h19.55V.128L23.02 2.82zM42.57 28.876v-5.384H23.018v8.076l19.55-2.692zm0-15.769H23.018v5.384h19.55v-5.384zm31.74-6.441c-5.137 0-9.297 4.172-9.297 9.326 0 5.153 4.16 9.326 9.297 9.326 5.136 0 9.296-4.173 9.296-9.326 0-5.154-4.179-9.326-9.296-9.326zm0 13.23a3.9 3.9 0 01-3.891-3.904 3.9 3.9 0 013.89-3.904 3.9 3.9 0 013.892 3.904 3.9 3.9 0 01-3.891 3.903zm-16.062-2.731l5.041 1.961c-1.342 3.75-5.022 6.403-9.296 6.153-4.753-.269-8.568-4.172-8.74-8.941-.211-5.288 4.025-9.672 9.277-9.672 4.044 0 7.494 2.596 8.76 6.21l-5.042 1.962a3.901 3.901 0 00-3.718-2.769c-2.224 0-4.006 1.865-3.891 4.134.115 2.02 1.801 3.654 3.814 3.692a3.874 3.874 0 003.795-2.73zM94.704 6.666c-5.137 0-9.296 4.172-9.296 9.326 0 5.153 4.159 9.326 9.296 9.326S104 21.145 104 15.992c0-5.154-4.16-9.326-9.296-9.326zm0 13.23a3.9 3.9 0 01-3.891-3.904 3.9 3.9 0 013.89-3.904 3.9 3.9 0 013.892 3.904 3.9 3.9 0 01-3.891 3.903z" fill="#FE8A90"/></svg>