<svg width="43" height="13" fill="none" xmlns="http://www.w3.org/2000/svg"><path d="M8.83 12.004H6.105l-.69-3.569-.69 3.569H1.998L.233 2.88h2.15l.978 5.058.979-5.058h2.149l.978 5.058.979-5.057h2.15L8.83 12.003zm12.32 0h-2.374L17.91 7.52l-.866 4.484h-2.15l1.765-9.123h2.15l.978 5.057.979-5.057h2.15l-1.766 9.123zm4.127 0h-2.15L25.297.796h2.146l-.113.59-.015.077-.157.814-.117.605-1.764 9.122zm-12.34 0h-2.15l1.765-9.123h2.15l-1.765 9.123zm27.585 0h-5.778l.403-2.086h5.776l-.4 2.086zm-7.512 0h-5.776l.402-2.086h5.776l-.402 2.086zm8.196-3.537h-5.777l.402-2.086h5.776l-.4 2.085h-.001zm-7.51 0h-5.778l.403-2.086h5.778l-.403 2.084v.002zm8.187-3.499h-5.778l.403-2.086h5.777l-.402 2.086zm-7.51 0h-5.777L29 2.881h5.776l-.403 2.085v.002z" fill="#314961"/></svg>