<svg width="151" height="40" fill="none" xmlns="http://www.w3.org/2000/svg"><path d="M31.357 40h-9.73l-2.463-12.733L16.703 40H6.974L.676 7.445h7.671l3.492 18.049 3.49-18.048H23l3.491 18.049 3.492-18.048h7.672L31.356 40zm43.96 0H66.85l-3.095-15.998L60.664 40h-7.67L59.29 7.444h7.67l3.491 18.049 3.492-18.049h7.67L75.318 40zm14.73 0h-7.671L90.115.004h7.663l-.406 2.105-.054.277-.557 2.903-.417 2.158L90.047 40zM46.01 40h-7.67l6.298-32.556h7.67L46.01 40zm98.442 0h-20.62l1.437-7.443h20.613L144.453 40h-.002zm-26.808 0H97.029l1.438-7.443h20.612L117.642 40h.001zm29.248-12.622h-20.617l1.437-7.444h20.612l-1.428 7.443-.004.001zm-26.8 0h-20.62l1.437-7.444h20.619l-1.436 7.44-.001.004zm29.215-12.485H128.69l1.437-7.444h20.617l-1.437 7.443v.001zm-26.802 0h-20.612l1.44-7.449h20.613l-1.437 7.443-.004.006z" fill="#FF7A44"/></svg>