<svg width="113" height="126" fill="none" xmlns="http://www.w3.org/2000/svg"><path fill-rule="evenodd" clip-rule="evenodd" d="M37.668 36.1a5.738 5.738 0 00-6.885 4.296 5.738 5.738 0 004.3 6.882 5.738 5.738 0 006.886-4.295 5.738 5.738 0 00-4.3-6.882zm-8.833 3.846a7.738 7.738 0 019.284-5.794 7.738 7.738 0 015.798 9.281 7.738 7.738 0 01-9.284 5.794 7.738 7.738 0 01-5.798-9.281z" fill="#BBA390"/><path fill-rule="evenodd" clip-rule="evenodd" d="M29.387 1.486a1 1 0 011.157.814l6.817 39.219a1 1 0 11-1.97.342L28.574 2.642a1 1 0 01.813-1.156zm35.73 56.434a1 1 0 01.326 1.013l-2.53 9.883 6.758 7.649a1 1 0 01-.67 1.659l-10.172.811-4.962 8.827a1 1 0 01-1.795-.107l-3.916-9.438-9.958-2.303a1 1 0 01-.411-1.745l7.822-6.462-1.046-10.221a1 1 0 011.523-.951l8.731 5.427 9.244-4.188a1 1 0 011.056.145zm-2.128 2.536l-7.833 3.548a1 1 0 01-.94-.062L46.76 59.31l.893 8.727a1 1 0 01-.358.873l-6.674 5.513 8.486 1.962a1 1 0 01.699.591l3.325 8.015 4.216-7.5a1 1 0 01.792-.506l8.708-.695-5.783-6.546a1 1 0 01-.219-.91l2.144-8.377z" fill="#BBA390"/><path fill-rule="evenodd" clip-rule="evenodd" d="M29.403 20.874c-3.617-.836-7.5 1.413-8.382 5.23l-6.97 30.14c-.454 1.963-.194 3.798.769 5.341v.002l31.1 49.44.022.037c1.898 3.328 6.346 4.357 9.513 2.2a.535.535 0 01.034-.022l36.23-22.607c3.424-2.136 4.406-6.38 2.268-9.803L62.568 30.547c-.964-1.543-2.5-2.582-4.465-3.036l-28.7-6.637zm-10.331 4.779c1.14-4.934 6.129-7.803 10.781-6.728l28.7 6.637c2.414.558 4.431 1.877 5.711 3.926l31.419 50.285c2.723 4.36 1.457 9.838-2.905 12.56l-36.214 22.596c-4.124 2.794-9.869 1.466-12.349-2.855L13.127 62.649l-.001-.003c-1.28-2.048-1.58-4.44-1.023-6.852l6.97-30.141z" fill="#BBA390"/></svg>