<svg width="117" height="102" fill="none" xmlns="http://www.w3.org/2000/svg"><path fill-rule="evenodd" clip-rule="evenodd" d="M52.754 18.641a1 1 0 01.888 1.1L49.77 55.91a1 1 0 01-1.815.465L30.427 31.248a1 1 0 011.64-1.144l15.998 22.933 3.589-33.508a1 1 0 011.1-.888zM11.023 40.29a1 1 0 011.335.469L34.979 87.83l28.969-5.074a1 1 0 01.345 1.97L34.578 89.93a1 1 0 01-1.074-.552L10.555 41.625a1 1 0 01.468-1.334z" fill="#BBA390"/><path fill-rule="evenodd" clip-rule="evenodd" d="M30.696 29.763a1 1 0 011.076.917l2.458 30.682a1 1 0 01-1.682.808L11.006 41.88a1 1 0 111.371-1.457l19.652 18.51-2.25-28.094a1 1 0 01.917-1.076zm3.537 58.198a1 1 0 011.158.813l1.363 7.782a1 1 0 11-1.97.345L33.42 89.12a1 1 0 01.812-1.158zm3.966-21.558a1 1 0 011.336.463l6.848 14.114a1 1 0 11-1.8.873l-6.847-14.114a1 1 0 01.463-1.336zm13.751-4.39a1 1 0 011.232.695l4.584 16.455a1 1 0 01-1.927.537l-4.584-16.455a1 1 0 01.695-1.232z" fill="#BBA390"/><path fill-rule="evenodd" clip-rule="evenodd" d="M29.142 22.823a3.55 3.55 0 101.225 6.992 3.55 3.55 0 00-1.225-6.992zm-4.853 4.453a5.55 5.55 0 1110.932-1.915 5.55 5.55 0 01-10.932 1.915zM8.685 33.699A3.549 3.549 0 109.91 40.69a3.549 3.549 0 00-1.225-6.992zm-4.853 4.453a5.55 5.55 0 1110.931-1.915 5.55 5.55 0 01-10.931 1.915zm47.654-26.534a3.55 3.55 0 101.225 6.992 3.55 3.55 0 00-1.224-6.992zm-4.853 4.453a5.55 5.55 0 1110.932-1.915 5.55 5.55 0 01-10.932 1.915zM34.784 96.9a1 1 0 01.812-1.158l29.715-5.205a1 1 0 01.345 1.97l-29.715 5.205a1 1 0 01-1.157-.812zm42.423-75.286a1 1 0 011.228.701l7.433 27.187 12.19-24.088a1 1 0 011.784.903L86.481 52.72a1 1 0 01-1.857-.188l-8.118-29.69a1 1 0 01.7-1.229z" fill="#BBA390"/><path fill-rule="evenodd" clip-rule="evenodd" d="M99.287 24.83a1 1 0 01.894 1.097l-5.35 52.71a1 1 0 01-.823.885l-29.715 5.205a1 1 0 01-.345-1.97l28.969-5.075 5.274-51.957a1 1 0 011.096-.894zm-46.606-6.176a1 1 0 011.337.46l14.778 30.319 7.475-27.079a1 1 0 011.928.532l-8.18 29.63a1 1 0 01-1.862.171L52.221 19.991a1 1 0 01.46-1.337z" fill="#BBA390"/><path fill-rule="evenodd" clip-rule="evenodd" d="M93.663 77.551a1 1 0 011.157.812l1.364 7.783a1 1 0 11-1.97.345l-1.364-7.782a1 1 0 01.813-1.158zM82.605 58.623a1 1 0 01.89 1.1l-1.643 15.6a1 1 0 01-1.989-.21l1.643-15.6a1 1 0 011.099-.89zm-14.425.547a1 1 0 011.072.922l1.283 17.033a1 1 0 11-1.995.15l-1.282-17.033a1 1 0 01.922-1.072zm8.13-44.609a3.55 3.55 0 101.224 6.992 3.55 3.55 0 00-1.225-6.992zm-4.854 4.454A5.55 5.55 0 1182.387 17.1a5.55 5.55 0 01-10.931 1.915zm27.789-1.179a3.549 3.549 0 101.225 6.991 3.549 3.549 0 00-1.225-6.991zm-4.854 4.453a5.55 5.55 0 1110.932-1.915 5.55 5.55 0 01-10.931 1.915zM51.486 11.618a3.55 3.55 0 101.225 6.992 3.55 3.55 0 00-1.224-6.992zm-4.853 4.453a5.55 5.55 0 1110.932-1.915 5.55 5.55 0 01-10.932 1.915z" fill="#BBA390"/><path fill-rule="evenodd" clip-rule="evenodd" d="M64.499 91.696a1 1 0 01.812-1.158l29.715-5.205a1 1 0 01.345 1.97l-29.715 5.205a1 1 0 01-1.157-.812z" fill="#BBA390"/></svg>