<svg width="125" height="92" fill="none" xmlns="http://www.w3.org/2000/svg"><path fill-rule="evenodd" clip-rule="evenodd" d="M53.88 1.988a1 1 0 011.054-.943l68.365 3.81a1 1 0 01.943 1.054l-4.71 84.524a1 1 0 01-1.054.942l-68.365-3.809a1 1 0 01-.943-1.054l4.71-84.524zm1.941 1.11l-4.598 82.527 66.368 3.698 4.598-82.527-66.368-3.698zM49.18 14.785a1 1 0 01-.642 1.26l-18.213 5.913 13.873 41.618a1 1 0 11-1.897.633L28.109 21.634a1 1 0 01.64-1.267l19.17-6.225a1 1 0 011.26.643zM24.765 28.182a1 1 0 01-.582 1.29l-8.135 3.078 28.825 52.52a1 1 0 11-1.753.962l-29.38-53.53a1 1 0 01.523-1.416l9.212-3.485a1 1 0 011.29.581zM11.198 41.9a1 1 0 01-.232 1.395l-7.754 5.538L35.99 81.61a1 1 0 01-1.414 1.414L.964 49.413a1 1 0 01.125-1.521l8.714-6.224a1 1 0 011.395.232z" fill="#BBA390"/><path fill-rule="evenodd" clip-rule="evenodd" d="M63.78 12.209a1 1 0 011.054-.943l48.725 2.715a1 1 0 01.943 1.054l-1.634 29.335a1 1 0 01-1.054.943l-48.726-2.715a1 1 0 01-.943-1.054l1.635-29.335zm1.94 1.11l-1.522 27.337 46.728 2.604 1.524-27.338-46.73-2.603zm7.652 40.06a1 1 0 011.054-.944l36.35 1.992a1 1 0 01-.11 1.997l-36.35-1.992a1 1 0 01-.944-1.053zm-.746 10.957a1 1 0 011.05-.946l14.192.747a1 1 0 11-.105 1.997l-14.191-.747a1 1 0 01-.947-1.051zm-.996 10.948a1 1 0 011.06-.937l24.399 1.494a1 1 0 01-.123 1.997l-24.399-1.494a1 1 0 01-.937-1.06zm-6.222-25.082a2.237 2.237 0 100 4.473 2.237 2.237 0 000-4.473zm-4.237 2.237a4.237 4.237 0 118.474 0 4.237 4.237 0 01-8.474 0zm3.49 20.667a2.237 2.237 0 100 4.474 2.237 2.237 0 000-4.474zm-4.237 2.237a4.237 4.237 0 118.474 0 4.237 4.237 0 01-8.474 0z" fill="#BBA390"/><path fill-rule="evenodd" clip-rule="evenodd" d="M84.15 12.352a1 1 0 01.928 1.066l-1.176 17.179 12.185.855.938-16.417a1 1 0 111.997.114l-.996 17.428a1 1 0 01-1.069.941l-14.191-.996a1 1 0 01-.928-1.066l1.245-18.175a1 1 0 011.066-.93zM64.66 32.52l-.207-.977a1 1 0 00.415 1.956h.003l.014-.003.062-.013.252-.047a28.556 28.556 0 014.154-.414c2.372-.056 5.029.214 6.974 1.287l-.465 8.364a1 1 0 101.997.111l.498-8.963a1 1 0 00-.444-.887c-2.51-1.674-5.951-1.974-8.608-1.91a30.54 30.54 0 00-4.459.444 16.767 16.767 0 00-.362.068l-.021.005h-.006l-.002.001s-.002 0 .206.979z" fill="#BBA390"/></svg>