<svg width="161" height="27" fill="none" xmlns="http://www.w3.org/2000/svg"><path d="M37.51 20.02c0-3.532 2.659-6.358 6.159-6.358h.28a6.304 6.304 0 016.579 6.076c.14 3.533-2.52 6.5-6.02 6.642h-.56c-3.5.14-6.299-2.544-6.439-5.935v-.424zm10.358 0c0-2.26-1.68-3.956-3.92-3.956s-3.919 1.696-3.919 3.957c0 2.26 1.68 3.956 3.92 3.956 2.1.142 3.919-1.554 3.919-3.674.14-.14.14-.14 0-.282z" fill="#2B8CFC"/><path d="M79.784 25.673l-5.6-8.054c-.7 0-1.26.14-1.959.14h-6.72v7.914h-2.659V.663h9.239c6.3 0 10.079 3.25 10.079 8.619.14 3.674-2.24 6.924-5.6 7.913l6.02 8.62h-2.8v-.142zm-.14-16.533c0-3.956-2.66-6.217-7.559-6.217h-6.58v12.576h6.58c4.9-.141 7.56-2.402 7.56-6.359zm20.297-6.217h-8.678V.663h20.017v2.26h-8.679v22.75h-2.66V2.923zM121.639.662h2.659v25.011h-2.659V.663z" fill="#fff"/><path d="M42.689.662h2.52V14.37h-2.52V.662z" fill="#2B8CFC"/><path d="M160.694.662v25.011h-2.1L142.496 5.325v20.348h-2.659V.663h2.099l15.958 20.347V.662h2.8zM23.231 17.477c-1.68 3.815-5.46 6.076-9.519 5.935-5.599.141-10.218-4.24-10.358-9.891v-.566C3.214 7.303 7.693 2.64 13.292 2.64h.56c4.06-.141 7.84 2.261 9.52 5.935l2.379-1.13c-2.38-4.38-7-7.207-12.039-7.066C6.853.097.974 5.466.694 12.39v.707c-.14 6.924 5.32 12.717 12.318 12.858h.7c5.04.142 9.66-2.684 11.899-7.206l-2.38-1.272z" fill="#fff"/></svg>