<svg width="161" height="26" fill="none" xmlns="http://www.w3.org/2000/svg"><g clip-path="url(#clip0_1_47)"><path d="M36.91 19.64c0-3.532 2.659-6.358 6.158-6.358h.28a6.304 6.304 0 016.58 6.076c.14 3.533-2.52 6.5-6.02 6.642h-.56c-3.5.14-6.299-2.544-6.439-5.935v-.424zm10.358 0c0-2.26-1.68-3.956-3.92-3.956s-3.92 1.696-3.92 3.957c0 2.26 1.68 3.956 3.92 3.956 2.1.142 3.92-1.554 3.92-3.674.14-.14.14-.14 0-.282z" fill="#2B8CFC"/><path d="M79.184 25.293l-5.6-8.054c-.7 0-1.26.141-1.96.141h-6.718v7.913h-2.66V.283h9.239c6.299 0 10.079 3.25 10.079 8.619.14 3.674-2.24 6.924-5.6 7.913l6.02 8.62h-2.8v-.142zm-.14-16.533c0-3.956-2.66-6.217-7.56-6.217h-6.578V15.12h6.579c4.9-.141 7.559-2.402 7.559-6.359zm20.297-6.217h-8.679V.283h20.018v2.26h-8.679v22.75h-2.66V2.543zM121.039.282h2.659v25.011h-2.659V.283z" fill="#12253B"/><path d="M42.089.282h2.52V13.99h-2.52V.282z" fill="#2B8CFC"/><path d="M160.094.282v25.011h-2.1L141.896 4.945v20.348h-2.66V.283h2.1l15.958 20.347V.282h2.8zM22.63 17.097c-1.679 3.816-5.458 6.076-9.518 5.935-5.6.141-10.219-4.24-10.359-9.891v-.566c-.14-5.652 4.34-10.315 9.94-10.315h.56c4.059-.141 7.838 2.261 9.518 5.935l2.38-1.13c-2.38-4.38-7-7.207-12.039-7.066C6.253-.283.374 5.086.094 12.01v.707c-.14 6.924 5.32 12.717 12.318 12.859h.7c5.04.14 9.659-2.685 11.899-7.207l-2.38-1.272z" fill="#12253B"/></g><defs><clipPath id="clip0_1_47"><path fill="#fff" transform="translate(.094)" d="M0 0h160v26H0z"/></clipPath></defs></svg>